<svg width="12" height="12" viewBox="0 0 12 12" fill="none" xmlns="http://www.w3.org/2000/svg">
<mask id="mask0_1341_1620" style="mask-type:alpha" maskUnits="userSpaceOnUse" x="0" y="0" width="12" height="12">
<rect width="12" height="12" fill="#D9D9D9"/>
</mask>
<g mask="url(#mask0_1341_1620)">
<path d="M4.93593 9.17151L0.722104 5.28673C0.657184 5.22686 0.608493 5.1627 0.576033 5.09425C0.543573 5.02579 0.527344 4.95304 0.527344 4.87598C0.527344 4.72184 0.586486 4.58491 0.704772 4.4652C0.823058 4.34549 0.977351 4.28564 1.16765 4.28564L10.0409 4.28564C10.2312 4.28564 10.3855 4.34549 10.5038 4.4652C10.622 4.58491 10.6812 4.72184 10.6812 4.87598C10.6812 4.91862 10.6163 5.05554 10.4864 5.28673L6.2726 9.17151C6.17033 9.26578 6.06472 9.33218 5.95576 9.37071C5.84681 9.40924 5.72965 9.4285 5.60427 9.4285C5.47889 9.4285 5.36172 9.40924 5.25277 9.37071C5.14382 9.33218 5.0382 9.26578 4.93593 9.17151Z" fill="#EC3D3D"/>
</g>
</svg>
