<svg width="15" height="14" viewBox="0 0 15 14" fill="none" xmlns="http://www.w3.org/2000/svg">
<mask id="mask0_1684_39020" style="mask-type:alpha" maskUnits="userSpaceOnUse" x="0" y="0" width="15" height="14">
<rect x="0.5" width="14" height="14" fill="#D9D9D9"/>
</mask>
<g mask="url(#mask0_1684_39020)">
<path d="M7.50002 8.79741C7.41293 8.79741 7.32956 8.78235 7.24988 8.75223C7.1702 8.72211 7.09771 8.6744 7.0324 8.6091L4.35255 5.92925C4.22933 5.80603 4.16772 5.65132 4.16772 5.46512C4.16772 5.27892 4.22933 5.12421 4.35255 5.00099C4.47577 4.87777 4.63048 4.81616 4.81668 4.81616C5.00288 4.81616 5.15759 4.87777 5.28081 5.00099L7.50002 7.2202L9.71922 5.00099C9.84244 4.87777 9.99715 4.81616 10.1833 4.81616C10.3695 4.81616 10.5243 4.87777 10.6475 5.00099C10.7707 5.12421 10.8323 5.27892 10.8323 5.46512C10.8323 5.65132 10.7707 5.80603 10.6475 5.92925L7.96763 8.6091C7.90233 8.6744 7.82983 8.72211 7.75015 8.75223C7.67048 8.78235 7.5871 8.79741 7.50002 8.79741Z" fill="#333333"/>
</g>
</svg>
