<svg width="20" height="20" viewBox="0 0 20 20" fill="none" xmlns="http://www.w3.org/2000/svg">
<mask id="mask0_1684_41583" style="mask-type:alpha" maskUnits="userSpaceOnUse" x="0" y="0" width="20" height="20">
<rect width="20" height="20" fill="#D9D9D9"/>
</mask>
<g mask="url(#mask0_1684_41583)">
<path d="M9.89579 16.6667C9.95134 16.6667 10.0069 16.6529 10.0625 16.6251C10.118 16.5973 10.1597 16.5695 10.1875 16.5417L17.0208 9.70842C17.1875 9.54175 17.309 9.35425 17.3854 9.14592C17.4618 8.93758 17.5 8.72925 17.5 8.52092C17.5 8.29869 17.4618 8.08689 17.3854 7.8855C17.309 7.68411 17.1875 7.50703 17.0208 7.35425L13.4791 3.81258C13.3263 3.64591 13.1493 3.52439 12.9479 3.448C12.7465 3.37161 12.5347 3.33341 12.3125 3.33341C12.1041 3.33341 11.8958 3.37161 11.6875 3.448C11.4791 3.52439 11.2916 3.64591 11.125 3.81258L10.8958 4.04175L12.4375 5.60425C12.6458 5.79869 12.7986 6.02091 12.8958 6.27091C12.993 6.52091 13.0416 6.7848 13.0416 7.06258C13.0416 7.64591 12.8437 8.1355 12.4479 8.53133C12.052 8.92716 11.5625 9.12508 10.9791 9.12508C10.7013 9.12508 10.434 9.07647 10.177 8.97925C9.92009 8.88203 9.6944 8.73619 9.49995 8.54175L7.93745 7.00008L4.29162 10.6459C4.24995 10.6876 4.2187 10.7327 4.19787 10.7813C4.17703 10.8299 4.16662 10.882 4.16662 10.9376C4.16662 11.0487 4.20828 11.1494 4.29162 11.2397C4.37495 11.3299 4.47217 11.3751 4.58328 11.3751C4.63884 11.3751 4.6944 11.3612 4.74995 11.3334C4.80551 11.3056 4.84717 11.2779 4.87495 11.2501L7.12495 9.00008C7.27773 8.8473 7.4687 8.76744 7.69787 8.7605C7.92704 8.75355 8.12495 8.83341 8.29162 9.00008C8.4444 9.15286 8.52078 9.3473 8.52078 9.58341C8.52078 9.81953 8.4444 10.014 8.29162 10.1667L6.06245 12.4167C6.02078 12.4584 5.98953 12.5036 5.9687 12.5522C5.94787 12.6008 5.93745 12.6529 5.93745 12.7084C5.93745 12.8195 5.97912 12.9167 6.06245 13.0001C6.14578 13.0834 6.24301 13.1251 6.35412 13.1251C6.40967 13.1251 6.46523 13.1112 6.52078 13.0834C6.57634 13.0556 6.61801 13.0279 6.64578 13.0001L8.89579 10.7709C9.04856 10.6181 9.23954 10.5383 9.4687 10.5313C9.69787 10.5244 9.89579 10.6042 10.0625 10.7709C10.2152 10.9237 10.2916 11.1181 10.2916 11.3542C10.2916 11.5904 10.2152 11.7848 10.0625 11.9376L7.83328 14.1876C7.79162 14.2154 7.76037 14.257 7.73953 14.3126C7.7187 14.3681 7.70828 14.4237 7.70828 14.4792C7.70828 14.5904 7.74995 14.6876 7.83328 14.7709C7.91662 14.8542 8.01384 14.8959 8.12495 14.8959C8.18051 14.8959 8.23259 14.8855 8.2812 14.8647C8.32981 14.8438 8.37495 14.8126 8.41662 14.7709L10.6666 12.5417C10.8194 12.389 11.0104 12.3091 11.2395 12.3022C11.4687 12.2952 11.6666 12.3751 11.8333 12.5417C11.9861 12.6945 12.0625 12.889 12.0625 13.1251C12.0625 13.3612 11.9861 13.5556 11.8333 13.7084L9.58329 15.9584C9.54162 16.0001 9.51037 16.0452 9.48954 16.0938C9.4687 16.1424 9.45828 16.1945 9.45828 16.2501C9.45828 16.3612 9.50342 16.4584 9.5937 16.5417C9.68398 16.6251 9.78467 16.6667 9.89579 16.6667ZM9.87495 18.3334C9.36106 18.3334 8.9062 18.1633 8.51037 17.823C8.11453 17.4827 7.8819 17.0556 7.81245 16.5417C7.34023 16.4723 6.9444 16.2779 6.62495 15.9584C6.30551 15.639 6.11106 15.2431 6.04162 14.7709C5.5694 14.7015 5.17703 14.5036 4.86453 14.1772C4.55203 13.8508 4.36106 13.4584 4.29162 13.0001C3.76384 12.9306 3.33328 12.7015 2.99995 12.3126C2.66662 11.9237 2.49995 11.4654 2.49995 10.9376C2.49995 10.6598 2.55203 10.3924 2.6562 10.1355C2.76037 9.87855 2.90967 9.65286 3.10412 9.45842L6.74995 5.81258C7.0694 5.49314 7.46176 5.33341 7.92703 5.33341C8.39231 5.33341 8.78467 5.49314 9.10412 5.81258L10.6666 7.37508C10.6944 7.41675 10.7361 7.448 10.7916 7.46883C10.8472 7.48966 10.9027 7.50008 10.9583 7.50008C11.0833 7.50008 11.1875 7.46189 11.2708 7.3855C11.3541 7.30911 11.3958 7.20841 11.3958 7.08341C11.3958 7.02786 11.3854 6.9723 11.3645 6.91675C11.3437 6.86119 11.3125 6.81953 11.2708 6.79175L8.29162 3.81258C8.13884 3.64591 7.96176 3.52439 7.76037 3.448C7.55898 3.37161 7.34717 3.33341 7.12495 3.33341C6.91662 3.33341 6.70828 3.37161 6.49995 3.448C6.29162 3.52439 6.10412 3.64591 5.93745 3.81258L2.99995 6.77091C2.87495 6.89591 2.77078 7.04175 2.68745 7.20841C2.60412 7.37508 2.54856 7.54175 2.52078 7.70841C2.49301 7.87508 2.49301 8.04522 2.52078 8.21883C2.54856 8.39244 2.60412 8.55564 2.68745 8.70841L1.47912 9.91675C1.24301 9.5973 1.0694 9.24661 0.958285 8.86466C0.847173 8.48272 0.805507 8.0973 0.833285 7.70841C0.861062 7.31953 0.958284 6.94105 1.12495 6.573C1.29162 6.20494 1.52078 5.87508 1.81245 5.58341L4.74995 2.64591C5.08328 2.32647 5.45481 2.08341 5.86453 1.91675C6.27426 1.75008 6.6944 1.66675 7.12495 1.66675C7.55551 1.66675 7.97565 1.75008 8.38537 1.91675C8.79509 2.08341 9.15967 2.32647 9.47912 2.64591L9.70828 2.87508L9.93745 2.64591C10.2708 2.32647 10.6423 2.08341 11.052 1.91675C11.4618 1.75008 11.8819 1.66675 12.3125 1.66675C12.743 1.66675 13.1631 1.75008 13.5729 1.91675C13.9826 2.08341 14.3472 2.32647 14.6666 2.64591L18.1875 6.16675C18.5069 6.48619 18.75 6.85425 18.9166 7.27091C19.0833 7.68758 19.1666 8.11119 19.1666 8.54175C19.1666 8.9723 19.0833 9.39244 18.9166 9.80216C18.75 10.2119 18.5069 10.5765 18.1875 10.8959L11.3541 17.7084C11.1597 17.9029 10.934 18.0556 10.677 18.1667C10.4201 18.2779 10.1527 18.3334 9.87495 18.3334Z" fill="#333333"/>
</g>
</svg>
