<svg width="20" height="20" viewBox="0 0 20 20" fill="none" xmlns="http://www.w3.org/2000/svg">
<mask id="mask0_1341_31694" style="mask-type:alpha" maskUnits="userSpaceOnUse" x="0" y="0" width="20" height="20">
<rect width="20" height="20" fill="#D9D9D9"/>
</mask>
<g mask="url(#mask0_1341_31694)">
<path d="M5.66675 10.8334L8.08341 13.2501C8.23619 13.4029 8.31258 13.5973 8.31258 13.8334C8.31258 14.0695 8.23619 14.264 8.08341 14.4167C7.93064 14.5695 7.73619 14.6459 7.50008 14.6459C7.26397 14.6459 7.06953 14.5695 6.91675 14.4167L3.08341 10.5834C3.00008 10.5001 2.94105 10.4098 2.90633 10.3126C2.87161 10.2154 2.85425 10.1112 2.85425 10.0001C2.85425 9.88897 2.87161 9.7848 2.90633 9.68758C2.94105 9.59036 3.00008 9.50008 3.08341 9.41675L6.91675 5.58341C7.06953 5.43064 7.26397 5.35425 7.50008 5.35425C7.73619 5.35425 7.93064 5.43064 8.08341 5.58341C8.23619 5.73619 8.31258 5.93064 8.31258 6.16675C8.31258 6.40286 8.23619 6.5973 8.08341 6.75008L5.66675 9.16675H16.6667C16.9029 9.16675 17.1008 9.24661 17.2605 9.40633C17.4202 9.56605 17.5001 9.76397 17.5001 10.0001C17.5001 10.2362 17.4202 10.4341 17.2605 10.5938C17.1008 10.7536 16.9029 10.8334 16.6667 10.8334H5.66675Z" fill="#333333"/>
</g>
</svg>
