<svg width="20" height="20" viewBox="0 0 20 20" fill="none" xmlns="http://www.w3.org/2000/svg">
<mask id="mask0_1341_31703" style="mask-type:alpha" maskUnits="userSpaceOnUse" x="0" y="0" width="20" height="20">
<rect width="20" height="20" fill="#D9D9D9"/>
</mask>
<g mask="url(#mask0_1341_31703)">
<path d="M10 18.3333C8.95833 18.3333 7.98264 18.1354 7.07292 17.7396C6.16319 17.3438 5.37153 16.809 4.69792 16.1354C4.02431 15.4618 3.48958 14.6701 3.09375 13.7604C2.69792 12.8507 2.5 11.875 2.5 10.8333C2.5 10.5972 2.57986 10.3993 2.73958 10.2396C2.89931 10.0799 3.09722 10 3.33333 10C3.56944 10 3.76736 10.0799 3.92708 10.2396C4.08681 10.3993 4.16667 10.5972 4.16667 10.8333C4.16667 12.4583 4.73264 13.8368 5.86458 14.9688C6.99653 16.1007 8.375 16.6667 10 16.6667C11.625 16.6667 13.0035 16.1007 14.1354 14.9688C15.2674 13.8368 15.8333 12.4583 15.8333 10.8333C15.8333 9.20834 15.2674 7.82987 14.1354 6.69793C13.0035 5.56598 11.625 5.00001 10 5.00001H9.875L10.5833 5.70834C10.75 5.87501 10.8299 6.06945 10.8229 6.29168C10.816 6.5139 10.7361 6.70834 10.5833 6.87501C10.4167 7.04168 10.2188 7.12848 9.98958 7.13543C9.76042 7.14237 9.5625 7.06251 9.39583 6.89584L7.25 4.75001C7.08333 4.58334 7 4.3889 7 4.16668C7 3.94445 7.08333 3.75001 7.25 3.58334L9.39583 1.43751C9.5625 1.27084 9.76042 1.19098 9.98958 1.19793C10.2188 1.20487 10.4167 1.29168 10.5833 1.45834C10.7361 1.62501 10.816 1.81945 10.8229 2.04168C10.8299 2.2639 10.75 2.45834 10.5833 2.62501L9.875 3.33334H10C11.0417 3.33334 12.0174 3.53126 12.9271 3.92709C13.8368 4.32293 14.6285 4.85765 15.3021 5.53126C15.9757 6.20487 16.5104 6.99654 16.9062 7.90626C17.3021 8.81598 17.5 9.79168 17.5 10.8333C17.5 11.875 17.3021 12.8507 16.9062 13.7604C16.5104 14.6701 15.9757 15.4618 15.3021 16.1354C14.6285 16.809 13.8368 17.3438 12.9271 17.7396C12.0174 18.1354 11.0417 18.3333 10 18.3333Z" fill="#333333"/>
</g>
</svg>
