<svg width="15" height="14" viewBox="0 0 15 14" fill="none" xmlns="http://www.w3.org/2000/svg">
<path d="M12.8031 7.00008C12.6625 7.00008 12.5276 7.05595 12.4281 7.1554C12.3287 7.25485 12.2728 7.38974 12.2728 7.53038V10.7122C12.2728 10.9935 12.1611 11.2633 11.9622 11.4622C11.7633 11.6611 11.4935 11.7728 11.2122 11.7728H3.78796C3.50667 11.7728 3.2369 11.6611 3.038 11.4622C2.8391 11.2633 2.72735 10.9935 2.72735 10.7122V3.28796C2.72735 3.00667 2.8391 2.7369 3.038 2.538C3.2369 2.3391 3.50667 2.22735 3.78796 2.22735H6.96978C7.11042 2.22735 7.24531 2.17148 7.34476 2.07203C7.44421 1.97258 7.50008 1.8377 7.50008 1.69705C7.50008 1.55641 7.44421 1.42152 7.34476 1.32207C7.24531 1.22262 7.11042 1.16675 6.96978 1.16675H3.78796C3.22538 1.16675 2.68584 1.39023 2.28804 1.78804C1.89023 2.18584 1.66675 2.72538 1.66675 3.28796V10.7122C1.66675 11.2748 1.89023 11.8143 2.28804 12.2121C2.68584 12.6099 3.22538 12.8334 3.78796 12.8334H11.2122C11.7748 12.8334 12.3143 12.6099 12.7121 12.2121C13.1099 11.8143 13.3334 11.2748 13.3334 10.7122V7.53038C13.3334 7.38974 13.2775 7.25485 13.1781 7.1554C13.0786 7.05595 12.9438 7.00008 12.8031 7.00008Z" fill="#999999"/>
<path d="M13.2839 1.55708C13.2548 1.49189 13.2148 1.43213 13.1657 1.38037C13.1581 1.37211 13.1555 1.3613 13.1473 1.35304C13.139 1.34477 13.1282 1.34223 13.1199 1.3346C13.0068 1.22523 12.8552 1.16492 12.6978 1.16679H8.88392C8.71534 1.16679 8.55365 1.23376 8.43445 1.35297C8.31524 1.47218 8.24827 1.63386 8.24827 1.80244C8.24827 1.97102 8.31524 2.1327 8.43445 2.25191C8.55365 2.37112 8.71534 2.43809 8.88392 2.43809H11.1634L6.52755 7.07388C6.46684 7.13252 6.41842 7.20266 6.3851 7.28021C6.35179 7.35776 6.33425 7.44117 6.33352 7.52558C6.33279 7.60998 6.34887 7.69368 6.38083 7.7718C6.41279 7.84992 6.45999 7.92089 6.51968 7.98057C6.57936 8.04025 6.65033 8.08745 6.72845 8.11941C6.80657 8.15137 6.89027 8.16746 6.97467 8.16672C7.05907 8.16599 7.14249 8.14846 7.22004 8.11514C7.29759 8.08183 7.36773 8.0334 7.42637 7.97269L12.0622 3.3369V5.61634C12.0622 5.78492 12.1292 5.9466 12.2484 6.06581C12.3676 6.18502 12.5293 6.25199 12.6978 6.25199C12.8664 6.25199 13.0281 6.18502 13.1473 6.06581C13.2665 5.9466 13.3335 5.78492 13.3335 5.61634V1.80244C13.3336 1.71816 13.3167 1.63472 13.2839 1.55708Z" fill="#999999"/>
</svg>
