<svg width="20" height="20" viewBox="0 0 20 20" fill="none" xmlns="http://www.w3.org/2000/svg">
<mask id="mask0_1341_31706" style="mask-type:alpha" maskUnits="userSpaceOnUse" x="0" y="0" width="20" height="20">
<rect width="20" height="20" fill="#D9D9D9"/>
</mask>
<g mask="url(#mask0_1341_31706)">
<path d="M7.5 17.5C7.04167 17.5 6.64931 17.3368 6.32292 17.0104C5.99653 16.684 5.83333 16.2917 5.83333 15.8333V7.5C5.83333 7.04167 5.99653 6.64931 6.32292 6.32292C6.64931 5.99653 7.04167 5.83333 7.5 5.83333H15.8333C16.2917 5.83333 16.684 5.99653 17.0104 6.32292C17.3368 6.64931 17.5 7.04167 17.5 7.5V15.8333C17.5 16.2917 17.3368 16.684 17.0104 17.0104C16.684 17.3368 16.2917 17.5 15.8333 17.5H7.5ZM8.33333 9.16667H15C15.2361 9.16667 15.434 9.08681 15.5938 8.92708C15.7535 8.76736 15.8333 8.56944 15.8333 8.33333C15.8333 8.09722 15.7535 7.89931 15.5938 7.73958C15.434 7.57986 15.2361 7.5 15 7.5H8.33333C8.09722 7.5 7.89931 7.57986 7.73958 7.73958C7.57986 7.89931 7.5 8.09722 7.5 8.33333C7.5 8.56944 7.57986 8.76736 7.73958 8.92708C7.89931 9.08681 8.09722 9.16667 8.33333 9.16667ZM10.8333 12.5H12.5V10.8333H10.8333V12.5ZM10.8333 15.8333H12.5V14.1667H10.8333V15.8333ZM7.5 12.5H9.16667V10.8333H7.5V12.5ZM14.1667 12.5H15.8333V10.8333H14.1667V12.5ZM7.5 15.8333H9.16667V14.1667H7.5V15.8333ZM14.1667 15.8333H15.8333V14.1667H14.1667V15.8333ZM4.16667 14.1667C3.70833 14.1667 3.31597 14.0035 2.98958 13.6771C2.66319 13.3507 2.5 12.9583 2.5 12.5V4.16667C2.5 3.70833 2.66319 3.31597 2.98958 2.98958C3.31597 2.66319 3.70833 2.5 4.16667 2.5H12.5C12.9583 2.5 13.3507 2.66319 13.6771 2.98958C14.0035 3.31597 14.1667 3.70833 14.1667 4.16667V5H12.5V4.16667H4.16667V12.5H5V14.1667H4.16667Z" fill="#333333"/>
</g>
</svg>
