<svg width="20" height="20" viewBox="0 0 20 20" fill="none" xmlns="http://www.w3.org/2000/svg">
<path d="M16.6448 9.56306C12.9773 7.47031 5.87598 3.5376 5.87598 3.5376L15.3439 10.3325C15.3439 10.3325 13.6192 11.3539 16.6448 9.56306Z" fill="#E8E0E0"/>
<path d="M18.7765 14.7787C19.0424 14.11 19.1264 13.4689 19.2285 11.8798L19.2287 11.876C19.2571 11.3757 19.2571 8.62302 19.2287 8.12274L19.2288 8.12273L19.2285 8.11847C19.2222 8.02235 19.2165 7.92125 19.2106 7.81597C19.1574 6.87459 19.0852 5.59811 18.4269 4.54494L18.416 4.52743L18.4036 4.51088C18.0207 3.9979 17.3926 3.62214 16.7324 3.49603C16.3425 3.42093 15.3956 3.36143 14.2144 3.31921C13.0128 3.27625 11.5204 3.25 10.0065 3.25C8.48912 3.25 6.99667 3.27625 5.79586 3.31921C4.61563 3.36143 3.67052 3.42092 3.28083 3.49603C2.74538 3.59807 2.26967 3.84576 1.86767 4.22143L1.86767 4.22143L1.86606 4.22294C1.40893 4.65393 1.18618 5.21779 1.06013 5.75601C0.958537 6.18982 0.910734 6.65389 0.868953 7.05949C0.859614 7.15015 0.850576 7.23789 0.841306 7.32172L0.840309 7.33073L0.83964 7.33976C0.7076 9.12348 0.733518 10.7169 0.83902 12.649L0.838854 12.649L0.839888 12.6618C0.908644 13.5159 0.959486 13.9083 1.09804 14.3792C1.25283 14.9193 1.46799 15.3697 1.78191 15.6904C2.16175 16.0846 2.66689 16.3439 3.22535 16.4589C3.98292 16.6175 5.18051 16.6725 8.48834 16.7344L8.48957 16.7344C11.2815 16.7799 13.7463 16.7318 16.6485 16.5098L16.6726 16.508L16.6963 16.5038C17.2592 16.4056 17.778 16.1355 18.1841 15.7308L18.1874 15.7275C18.4573 15.4534 18.6135 15.1966 18.7765 14.7787ZM18.7765 14.7787C18.7763 14.7792 18.7761 14.7797 18.7759 14.7802L18.3114 14.5954M18.7765 14.7787C18.7768 14.7781 18.777 14.7775 18.7772 14.7769L18.3114 14.5954M18.3114 14.5954C18.1672 14.9652 18.0442 15.1603 17.8312 15.3766M18.3114 14.5954C18.5445 14.0096 18.6269 13.4446 18.7295 11.8477C18.7568 11.3663 18.7568 8.63246 18.7295 8.15101C18.7231 8.05194 18.7171 7.95017 18.7111 7.84619C18.6553 6.8897 18.5886 5.74695 18.0029 4.80997C17.701 4.40546 17.1867 4.09177 16.6383 3.98709C15.9519 3.85468 13.024 3.75 10.0065 3.75C6.98212 3.75 4.06068 3.85468 3.37497 3.98709L17.8312 15.3766M17.8312 15.3766C17.4971 15.7095 17.0713 15.9309 16.6104 16.0113C13.7263 16.2319 11.2773 16.2797 8.49771 16.2345L17.8312 15.3766ZM11.8643 9.8184C11.4222 10.0537 10.9488 10.2981 10.4561 10.5524L10.4291 10.5663C9.86897 10.8554 9.28575 11.1564 8.7029 11.4677V8.13256C8.8883 8.23111 9.07336 8.32942 9.25828 8.42765C10.1239 8.88747 10.9862 9.34555 11.8643 9.8184Z" fill="#CD201F" stroke="white"/>
<path d="M13.9903 10.0106C11.7231 8.7045 9.55226 7.50371 7.33325 6.25V13.75C9.66833 12.3816 12.1296 11.1283 13.9999 10.0106H13.9903Z" fill="white"/>
</svg>
